<svg xmlns="http://www.w3.org/2000/svg" width="32" height="32" viewBox="0 0 32 32">
  <rect x="0" y="0" width="32" height="32" rx="6" fill="#1b1d21"/>
  <!-- columns of array cells forming a flamegraph silhouette; warm Dask ramp bottom->top -->
  <g>
    <!-- col 0 -->
    <rect x="2" y="24" width="5" height="5" rx="1" fill="#D6402E"/>
    <rect x="2" y="18" width="5" height="5" rx="1" fill="#E8552D"/>
    <!-- col 1 -->
    <rect x="8" y="24" width="5" height="5" rx="1" fill="#D6402E"/>
    <rect x="8" y="18" width="5" height="5" rx="1" fill="#E8552D"/>
    <rect x="8" y="12" width="5" height="5" rx="1" fill="#F2762E"/>
    <rect x="8" y="6" width="5" height="5" rx="1" fill="#FDA33E"/>
    <!-- col 2 -->
    <rect x="14" y="24" width="5" height="5" rx="1" fill="#D6402E"/>
    <rect x="14" y="18" width="5" height="5" rx="1" fill="#E8552D"/>
    <rect x="14" y="12" width="5" height="5" rx="1" fill="#F2762E"/>
    <!-- col 3 -->
    <rect x="20" y="24" width="5" height="5" rx="1" fill="#D6402E"/>
    <rect x="20" y="18" width="5" height="5" rx="1" fill="#E8552D"/>
    <rect x="20" y="12" width="5" height="5" rx="1" fill="#F2762E"/>
    <rect x="20" y="6" width="5" height="5" rx="1" fill="#FDA33E"/>
    <rect x="20" y="0" width="5" height="5" rx="1" fill="#FFC83D"/>
    <!-- col 4 -->
    <rect x="26" y="24" width="5" height="5" rx="1" fill="#D6402E"/>
    <rect x="26" y="18" width="5" height="5" rx="1" fill="#E8552D"/>
    <rect x="26" y="12" width="5" height="5" rx="1" fill="#F2762E"/>
    <rect x="26" y="6" width="5" height="5" rx="1" fill="#FDA33E"/>
  </g>
</svg>
